<?xml version="1.0" standalone="no"?>
<!DOCTYPE svg PUBLIC "-//W3C//DTD SVG 20010904//EN"
 "http://www.w3.org/TR/2001/REC-SVG-20010904/DTD/svg10.dtd">
<svg version="1.0" xmlns="http://www.w3.org/2000/svg"
 width="880.000000pt" height="512.000000pt" viewBox="0 0 880.000000 512.000000"
 preserveAspectRatio="xMidYMid meet">

<g transform="translate(0.000000,512.000000) scale(0.100000,-0.100000)"
fill="#000000" stroke="none">
<path d="M4334 5039 c-515 -26 -1016 -220 -1426 -552 l-105 -85 -154 154
c-170 171 -217 202 -317 211 -125 11 -263 -68 -312 -179 -27 -61 -170 -894
-172 -1000 -1 -67 2 -84 30 -140 47 -97 136 -159 247 -173 75 -10 975 144
1042 179 110 55 179 175 170 296 -7 109 -31 147 -194 312 -81 81 -145 149
-142 151 178 145 272 211 405 285 240 133 506 219 799 257 171 23 477 16 645
-14 886 -158 1592 -831 1783 -1701 41 -183 52 -291 51 -495 -1 -211 -21 -363
-74 -562 -156 -587 -566 -1096 -1113 -1383 -286 -150 -580 -230 -913 -249
-166 -9 -203 -20 -230 -73 -34 -65 -13 -147 46 -182 21 -12 54 -16 134 -16
432 0 912 148 1297 401 153 100 256 185 399 329 394 392 629 874 711 1450 20
143 15 502 -10 658 -68 433 -220 795 -479 1142 -95 126 -304 343 -422 436
-492 388 -1070 573 -1696 543z m-1637 -911 c205 -205 373 -380 373 -388 0 -44
-14 -47 -474 -126 -440 -75 -449 -76 -468 -57 -18 19 -17 27 57 460 41 243 75
444 75 447 0 11 33 36 48 36 9 0 184 -168 389 -372z"/>
<path d="M2203 1850 c-86 -52 -82 -189 6 -235 64 -32 145 -11 181 48 72 118
-69 259 -187 187z"/>
<path d="M2576 1250 c-88 -27 -121 -133 -65 -211 56 -79 171 -78 226 1 24 35
23 112 -3 146 -42 57 -101 81 -158 64z"/>
<path d="M3095 763 c-60 -16 -95 -67 -95 -139 0 -40 5 -51 38 -84 94 -94 232
-40 232 91 0 40 -6 55 -31 83 -17 20 -47 40 -67 46 -39 10 -45 11 -77 3z"/>
<path d="M3694 431 c-45 -28 -69 -94 -54 -149 20 -77 116 -121 193 -89 95 40
104 183 14 237 -42 26 -112 26 -153 1z"/>
</g>
</svg>
