<?xml version="1.0" standalone="no"?>
<!DOCTYPE svg PUBLIC "-//W3C//DTD SVG 20010904//EN"
 "http://www.w3.org/TR/2001/REC-SVG-20010904/DTD/svg10.dtd">
<svg version="1.0" xmlns="http://www.w3.org/2000/svg"
 width="820.000000pt" height="512.000000pt" viewBox="0 0 820.000000 512.000000"
 preserveAspectRatio="xMidYMid meet">

<g transform="translate(0.000000,512.000000) scale(0.100000,-0.100000)"
fill="#000000" stroke="none">
<path d="M4135 5110 c-39 -9 -65 -26 -90 -58 -18 -25 -20 -47 -25 -277 l-5
-250 -40 -3 c-22 -1 -85 -9 -140 -18 -765 -117 -1392 -689 -1576 -1438 -16
-65 -36 -181 -46 -257 l-17 -139 -271 0 c-266 0 -273 -1 -305 -22 -53 -37 -72
-70 -73 -127 -1 -55 16 -88 67 -125 26 -20 44 -21 314 -26 l287 -5 16 -95 c67
-386 254 -744 536 -1026 305 -306 685 -492 1120 -550 l132 -18 3 -291 c3 -272
4 -292 23 -317 36 -48 79 -64 158 -60 17 1 44 17 70 41 l42 40 5 298 5 298 95
16 c506 84 943 347 1247 750 178 235 319 564 357 834 l11 80 262 5 c244 5 263
6 289 26 50 37 68 70 67 123 -1 57 -22 98 -67 129 -31 21 -41 22 -272 22 -131
0 -244 4 -249 8 -6 4 -19 70 -28 147 -45 360 -165 657 -382 945 -253 335 -640
593 -1045 695 -84 21 -122 28 -257 51 l-33 5 0 243 c0 236 -1 244 -22 276 -42
61 -98 85 -163 70z m-115 -1098 c0 -220 6 -241 72 -282 69 -42 166 -17 208 52
18 30 20 51 20 231 l0 199 28 -6 c15 -3 45 -8 67 -12 223 -36 498 -158 695
-308 181 -138 361 -358 469 -574 83 -166 160 -453 161 -599 l0 -43 -192 0
c-175 0 -196 -2 -226 -20 -96 -59 -96 -201 0 -260 30 -18 51 -20 216 -20 l182
0 0 -27 c0 -74 -55 -256 -123 -408 -175 -394 -536 -721 -952 -863 -82 -28
-271 -72 -309 -72 -14 0 -16 20 -16 153 0 134 -2 156 -20 185 -59 96 -201 96
-260 0 -18 -29 -20 -51 -20 -186 0 -128 -2 -154 -15 -159 -9 -3 -72 4 -141 16
-588 98 -1077 511 -1267 1071 -33 96 -67 237 -67 275 0 13 22 15 158 15 139 0
161 2 190 20 96 59 96 201 0 260 -29 18 -51 20 -196 20 -137 0 -164 2 -169 15
-8 21 23 231 48 324 170 637 705 1111 1349 1195 52 7 98 11 103 9 4 -2 7 -93
7 -201z"/>
<path d="M3615 3851 c-139 -49 -287 -131 -395 -219 -77 -63 -90 -80 -90 -117
0 -35 21 -60 61 -70 21 -5 38 3 90 44 139 110 258 177 403 227 38 13 78 31 88
41 24 22 24 77 -2 103 -26 26 -58 24 -155 -9z"/>
<path d="M2913 3258 c-26 -13 -113 -195 -113 -238 0 -40 31 -70 73 -70 43 0
55 15 102 120 51 115 55 151 20 179 -30 23 -49 25 -82 9z"/>
</g>
</svg>
