<?xml version="1.0" standalone="no"?>
<!DOCTYPE svg PUBLIC "-//W3C//DTD SVG 20010904//EN"
 "http://www.w3.org/TR/2001/REC-SVG-20010904/DTD/svg10.dtd">
<svg version="1.0" xmlns="http://www.w3.org/2000/svg"
 width="840.000000pt" height="859.000000pt" viewBox="0 0 840.000000 859.000000"
 preserveAspectRatio="xMidYMid meet">

<g transform="translate(0.000000,859.000000) scale(0.100000,-0.100000)"
fill="#000000" stroke="none">
<path d="M2475 6534 c-39 -8 -100 -29 -125 -41 -14 -7 -31 -13 -37 -13 -7 0
-13 -4 -13 -9 0 -5 -9 -13 -21 -16 -26 -9 -51 -28 -109 -85 -58 -57 -91 -103
-114 -160 -10 -25 -22 -53 -27 -62 -19 -38 -29 -182 -18 -272 6 -50 15 -92 20
-94 5 -2 9 -10 9 -18 0 -8 15 -42 33 -75 42 -80 149 -187 224 -225 32 -16 60
-32 63 -35 3 -4 25 -10 50 -14 25 -4 50 -11 56 -16 18 -15 3868 -6 3929 9 72
17 150 58 223 116 34 27 62 52 62 55 0 3 14 22 31 41 87 97 141 319 108 444
-26 101 -64 197 -81 204 -5 2 -8 8 -8 13 0 12 -14 29 -61 77 -59 59 -98 87
-168 122 -36 17 -75 37 -86 43 -15 9 -516 12 -1970 13 -1072 1 -1959 0 -1970
-2z m3853 -320 c17 -3 40 -15 51 -25 11 -11 24 -19 29 -19 17 0 53 -50 93
-132 5 -10 9 -42 9 -72 0 -96 -64 -191 -160 -239 -30 -16 -182 -17 -1936 -17
-1070 0 -1905 4 -1908 9 -3 4 -18 11 -33 14 -30 6 -99 66 -121 105 -23 41 -33
121 -22 185 5 33 13 63 17 66 5 3 20 22 35 42 15 21 51 49 80 63 l52 26 1892
0 c1040 0 1905 -3 1922 -6z"/>
<path d="M2477 4859 c-38 -4 -93 -19 -123 -33 -30 -14 -59 -26 -64 -26 -6 0
-10 -4 -10 -9 0 -5 -10 -13 -22 -17 -27 -8 -154 -136 -163 -164 -3 -11 -11
-20 -16 -20 -5 0 -9 -4 -9 -10 0 -5 -11 -33 -24 -62 -54 -119 -54 -328 0 -446
13 -29 24 -57 24 -62 0 -6 4 -10 9 -10 5 0 13 -9 16 -21 8 -25 140 -156 166
-164 10 -4 19 -11 19 -16 0 -5 5 -9 10 -9 6 0 34 -11 62 -25 33 -16 84 -29
138 -35 52 -6 793 -10 1929 -10 1809 0 2021 3 2021 31 0 5 7 9 15 9 16 0 34 8
109 54 46 28 136 110 136 125 0 3 11 18 24 32 13 14 27 36 31 50 4 13 11 26
15 29 13 10 40 91 40 120 0 16 5 32 10 35 6 3 10 44 10 90 0 46 -4 87 -10 90
-5 3 -10 18 -10 33 0 31 -31 122 -41 122 -4 0 -10 14 -14 30 -4 17 -10 30 -15
30 -5 0 -11 9 -15 20 -14 45 -185 190 -223 190 -7 0 -12 5 -12 10 0 6 -8 10
-18 10 -10 0 -22 4 -27 9 -28 28 -225 31 -2040 30 -1023 -1 -1891 -5 -1928
-10z m3808 -309 c3 -5 17 -10 31 -10 14 0 39 -7 57 -16 54 -28 82 -63 128
-156 12 -23 12 -123 0 -146 -46 -93 -74 -128 -128 -156 -18 -9 -43 -16 -57
-16 -14 0 -28 -4 -31 -10 -4 -7 -640 -10 -1875 -10 -1235 0 -1871 3 -1875 10
-3 6 -15 10 -26 10 -48 0 -107 45 -151 114 -29 45 -32 56 -32 131 0 75 3 86
32 131 44 69 103 114 151 114 11 0 23 5 26 10 4 7 640 10 1875 10 1235 0 1871
-3 1875 -10z"/>
<path d="M2466 3191 c-3 -5 -26 -12 -51 -15 -61 -10 -164 -69 -235 -136 -59
-55 -140 -179 -140 -212 0 -10 -4 -18 -9 -18 -5 0 -14 -43 -21 -95 -10 -74
-10 -112 0 -176 6 -45 15 -89 20 -98 4 -9 16 -36 26 -61 33 -82 110 -172 188
-222 28 -18 53 -36 54 -40 2 -5 9 -8 15 -8 7 0 23 -6 37 -13 86 -44 2 -42
2076 -42 1445 0 1967 3 1985 11 160 76 183 91 252 161 55 55 67 70 67 83 0 5
4 10 8 10 7 0 14 14 50 100 19 46 33 111 39 185 9 108 -48 288 -116 365 -17
19 -31 38 -31 42 0 13 -141 117 -175 129 -19 7 -35 16 -35 20 0 4 -22 10 -50
14 -27 4 -52 11 -56 16 -7 12 -3891 12 -3898 0z m3890 -330 c87 -43 154 -145
154 -235 0 -76 -67 -206 -107 -206 -7 0 -13 -4 -13 -10 0 -5 -6 -10 -14 -10
-8 0 -16 -6 -18 -12 -4 -10 -399 -14 -1924 -16 l-1918 -2 -53 26 c-30 14 -65
42 -81 62 -15 20 -30 40 -35 43 -18 13 -28 130 -16 191 10 51 19 67 61 109 28
28 63 52 79 56 16 3 32 10 35 14 3 5 838 9 1908 9 1855 0 1903 0 1942 -19z"/>
</g>
</svg>
