<?xml version="1.0" standalone="no"?>
<!DOCTYPE svg PUBLIC "-//W3C//DTD SVG 20010904//EN"
 "http://www.w3.org/TR/2001/REC-SVG-20010904/DTD/svg10.dtd">
<svg version="1.0" xmlns="http://www.w3.org/2000/svg"
 width="900.000000pt" height="947.000000pt" viewBox="0 0 900.000000 947.000000"
 preserveAspectRatio="xMidYMid meet">

<g transform="translate(0.000000,947.000000) scale(0.100000,-0.100000)"
fill="#000000" stroke="none">
<path d="M3485 8995 c-400 -102 -767 -260 -1150 -495 -169 -103 -178 -130
-129 -368 53 -253 74 -364 74 -392 0 -36 -414 -450 -450 -450 -28 0 -139 21
-392 74 -238 49 -265 40 -368 -129 -236 -385 -396 -760 -500 -1167 -82 -325
-92 -305 245 -529 l245 -163 0 -311 0 -311 -247 -165 c-271 -180 -293 -201
-293 -286 0 -67 94 -420 161 -608 98 -271 235 -554 384 -790 117 -186 128
-190 399 -134 105 22 234 48 286 59 l95 18 217 -217 c167 -166 218 -222 218
-241 0 -28 -21 -138 -74 -392 -50 -244 -43 -261 149 -380 395 -243 746 -388
1242 -512 216 -55 218 -54 432 267 l166 247 310 0 311 0 165 -247 c213 -321
215 -322 432 -267 496 124 855 272 1242 512 196 121 200 133 144 406 -22 105
-49 234 -59 286 l-18 95 221 222 222 221 95 -18 c52 -10 181 -37 286 -59 273
-56 285 -52 406 144 243 395 388 746 512 1242 55 217 54 219 -267 432 l-247
165 0 311 0 310 247 166 c321 214 322 216 267 432 -124 496 -269 847 -512
1242 -119 192 -136 199 -380 149 -254 -53 -364 -74 -392 -74 -19 0 -75 50
-241 218 l-217 217 18 95 c11 52 37 181 59 286 56 271 52 282 -134 400 -228
143 -499 276 -770 376 -177 65 -561 168 -627 168 -86 0 -107 -22 -287 -293
l-165 -247 -311 0 -310 0 -165 247 c-182 273 -202 293 -290 293 -25 -1 -139
-25 -255 -55z m328 -558 c126 -189 163 -237 195 -255 39 -22 43 -22 498 -22
450 0 460 0 494 21 43 27 32 12 206 272 80 119 150 217 156 217 41 0 404 -119
558 -182 248 -103 530 -255 530 -287 0 -20 -19 -121 -64 -334 -38 -180 -42
-219 -26 -264 14 -37 636 -661 677 -679 50 -22 85 -18 340 36 130 28 247 50
259 50 16 0 32 -17 61 -67 138 -234 252 -488 332 -740 44 -140 81 -270 81
-286 0 -3 -105 -75 -232 -160 -191 -127 -237 -162 -255 -195 -23 -40 -23 -41
-23 -497 0 -454 0 -458 22 -497 18 -32 66 -69 255 -195 128 -85 233 -158 233
-160 0 -16 -38 -149 -82 -288 -80 -252 -193 -503 -331 -739 l-41 -68 -48 6
c-27 4 -143 27 -259 51 -225 48 -275 53 -317 31 -33 -18 -655 -642 -671 -673
-19 -37 -13 -95 34 -312 24 -116 47 -232 51 -259 l6 -48 -68 -41 c-236 -139
-491 -253 -740 -331 -177 -56 -267 -82 -282 -82 -5 0 -80 105 -165 233 -126
189 -163 237 -195 255 -39 22 -43 22 -497 22 -456 0 -457 0 -498 -22 -33 -19
-67 -64 -194 -255 -85 -128 -159 -233 -164 -233 -16 0 -104 26 -284 82 -190
60 -393 145 -565 235 -193 102 -240 132 -240 157 0 12 23 129 50 259 54 255
58 290 36 340 -18 41 -642 663 -679 677 -46 17 -86 12 -306 -35 -116 -24 -232
-47 -259 -51 l-48 -6 -55 93 c-131 223 -243 478 -322 729 -40 128 -77 258 -77
273 0 3 98 71 218 151 259 174 244 163 271 206 21 34 21 44 21 494 0 455 0
459 -22 498 -18 32 -66 69 -255 195 -128 85 -233 157 -233 160 0 15 37 145 77
273 78 249 195 515 321 728 42 71 59 92 76 92 12 0 129 -22 259 -50 247 -52
287 -57 334 -40 37 14 661 636 679 677 22 50 18 85 -36 340 -27 130 -50 247
-50 259 0 56 480 290 810 394 138 44 256 77 277 79 6 1 81 -104 166 -232z"/>
<path d="M4366 6529 c-514 -54 -950 -356 -1180 -816 -81 -163 -126 -325 -146
-533 -31 -309 71 -689 258 -954 131 -187 344 -372 543 -471 425 -214 909 -212
1333 3 275 139 508 376 647 656 102 206 152 419 152 651 0 237 -50 445 -157
660 -79 157 -161 269 -292 395 -126 121 -229 194 -385 270 -146 70 -332 122
-503 139 -121 12 -155 12 -270 0z m389 -378 c385 -99 668 -354 799 -721 46
-127 59 -204 59 -360 1 -205 -24 -311 -119 -505 -148 -303 -439 -523 -789
-596 -85 -18 -333 -15 -420 4 -317 71 -584 263 -743 534 -43 73 -97 210 -123
309 -20 75 -23 114 -23 249 0 184 15 263 83 428 145 354 481 615 869 677 93
15 316 4 407 -19z"/>
</g>
</svg>
