<?xml version="1.0" standalone="no"?>
<!DOCTYPE svg PUBLIC "-//W3C//DTD SVG 20010904//EN"
 "http://www.w3.org/TR/2001/REC-SVG-20010904/DTD/svg10.dtd">
<svg version="1.0" xmlns="http://www.w3.org/2000/svg"
 width="860.000000pt" height="900.000000pt" viewBox="0 0 860.000000 900.000000"
 preserveAspectRatio="xMidYMid meet">

<g transform="translate(0.000000,900.000000) scale(0.100000,-0.100000)"
fill="#000000" stroke="none">
<path d="M7970 8580 c-33 -10 -35 -11 -860 -400 -388 -183 -732 -345 -765
-360 -74 -35 -242 -113 -400 -188 -208 -98 -205 -96 -580 -471 l-350 -351
-305 0 c-354 0 -488 -10 -603 -46 -100 -32 -162 -62 -247 -122 -41 -28 -569
-548 -1428 -1406 -749 -748 -1362 -1363 -1362 -1366 0 -3 55 -61 121 -129
l121 -123 -29 -30 -29 -29 -120 26 c-65 14 -157 35 -203 46 l-85 20 -263 -263
c-145 -145 -263 -267 -263 -273 0 -5 562 -572 1250 -1260 l1250 -1250 47 45
c26 25 146 145 267 268 l221 223 -12 52 c-6 29 -26 121 -44 205 l-32 152 23
25 c13 14 27 25 32 25 5 0 63 -54 130 -119 l122 -119 60 55 c140 130 2675
2680 2710 2727 53 70 101 169 133 273 l27 88 4 395 3 395 363 365 364 365 50
105 c51 109 595 1261 663 1408 22 45 56 119 78 165 21 45 89 190 151 322 105
224 113 244 113 300 0 74 -26 136 -78 187 -62 62 -171 92 -245 68z m-133 -462
c-3 -7 -204 -434 -447 -949 l-441 -935 -305 -305 -304 -304 -500 500 c-275
275 -500 503 -500 507 0 3 136 142 303 309 l302 302 120 57 c66 31 165 78 220
104 55 25 422 199 815 385 393 187 721 339 729 340 7 1 11 -5 8 -11z m-2250
-2240 l573 -573 0 -355 c0 -288 -3 -367 -15 -415 -21 -80 -47 -136 -88 -190
-20 -25 -587 -595 -1261 -1266 l-1225 -1220 -1001 1000 c-550 550 -1000 1004
-1000 1008 0 5 561 569 1248 1254 1113 1112 1253 1248 1307 1274 106 50 133
53 525 54 l365 1 572 -572z m-2517 -4019 c0 -4 -41 -46 -91 -95 -68 -67 -89
-94 -86 -109 3 -11 22 -105 42 -209 l38 -188 -77 -77 -76 -76 -1000 1000
c-550 550 -1000 1004 -1000 1009 0 19 135 146 155 146 23 0 363 -66 386 -75
10 -4 48 28 109 90 l95 95 752 -752 c414 -414 753 -756 753 -759z"/>
<path d="M6621 7239 c-14 -5 -102 -52 -195 -104 l-171 -94 -232 -233 c-198
-199 -233 -239 -243 -275 -32 -124 90 -245 213 -213 36 10 74 43 252 220 l210
208 165 91 c91 50 172 97 181 104 65 50 80 166 30 234 -16 22 -45 47 -64 56
-38 19 -108 21 -146 6z"/>
<path d="M4523 6059 c-133 -10 -259 -36 -303 -61 -19 -12 -491 -476 -1048
-1032 -1090 -1089 -1043 -1037 -1027 -1125 10 -55 48 -106 97 -130 53 -25 92
-27 144 -5 27 11 317 295 1013 991 577 577 989 981 1008 989 34 15 248 34 383
34 99 0 151 19 193 69 33 40 41 68 35 132 -6 56 -28 93 -78 127 -31 20 -43 22
-174 21 -78 -1 -187 -5 -243 -10z"/>
</g>
</svg>
