<?xml version="1.0" standalone="no"?>
<!DOCTYPE svg PUBLIC "-//W3C//DTD SVG 20010904//EN"
 "http://www.w3.org/TR/2001/REC-SVG-20010904/DTD/svg10.dtd">
<svg version="1.0" xmlns="http://www.w3.org/2000/svg"
 width="225.000000pt" height="225.000000pt" viewBox="0 0 225.000000 225.000000"
 preserveAspectRatio="xMidYMid meet">

<g transform="translate(0.000000,225.000000) scale(0.100000,-0.100000)"
fill="#000000" stroke="none">
<path d="M1935 2231 c-16 -10 -456 -444 -977 -963 -1011 -1007 -970 -962 -948
-1039 14 -48 174 -206 223 -219 73 -21 103 2 429 328 l298 297 67 -66 c73 -71
88 -80 143 -84 33 -3 45 7 235 193 236 233 679 677 706 710 10 12 19 27 19 32
0 6 5 10 10 10 6 0 10 7 10 15 0 8 5 15 11 15 5 0 7 5 4 10 -3 6 -2 10 4 10 9
0 21 24 21 43 0 4 6 20 14 36 52 100 52 324 0 426 -9 17 -17 38 -19 48 -2 9
-11 24 -19 33 -9 8 -16 22 -16 30 0 8 -4 14 -10 14 -5 0 -10 5 -10 11 0 14
-101 113 -120 118 -8 2 -22 5 -30 7 -8 3 -28 -4 -45 -15z m100 -153 c4 -10 11
-18 16 -18 5 0 9 -7 9 -15 0 -8 4 -15 9 -15 5 0 11 -8 14 -17 4 -10 13 -36 21
-58 19 -50 20 -55 1 -55 -34 0 -125 -63 -125 -87 0 -7 -4 -13 -9 -13 -14 0
-30 -58 -32 -115 -2 -53 -32 -120 -58 -131 -9 -3 -49 -10 -89 -15 -133 -15
-208 -86 -219 -209 -7 -70 -25 -114 -55 -134 -13 -9 -60 -21 -103 -26 -53 -8
-92 -19 -116 -35 -51 -33 -89 -103 -96 -173 -9 -109 -43 -150 -130 -157 -27
-3 -64 -7 -83 -10 -33 -5 -39 -1 -118 78 l-83 83 589 594 589 594 31 -25 c17
-13 34 -32 37 -41z m105 -318 c0 -46 -17 -134 -32 -170 -27 -64 -34 -77 -53
-104 -11 -16 -32 -40 -46 -55 -14 -14 -211 -210 -438 -436 l-411 -409 -50 49
c-28 27 -50 52 -50 56 0 3 22 9 50 13 27 4 52 11 55 16 4 6 11 8 16 5 5 -4 9
-1 9 4 0 6 5 11 11 11 17 0 63 52 82 91 9 20 19 61 21 92 9 105 36 133 145
146 91 12 114 21 155 65 42 46 55 68 60 106 3 19 8 57 11 84 10 72 41 99 130
111 88 12 92 13 115 27 23 13 99 87 101 98 0 3 3 14 6 25 2 11 8 48 12 81 9
66 27 100 63 121 35 19 38 16 38 -27z m-1562 -1347 c-167 -167 -308 -303 -313
-303 -13 0 -155 142 -155 155 0 6 136 146 302 312 l303 303 82 -82 83 -83
-302 -302z"/>
</g>
</svg>
