<?xml version="1.0" standalone="no"?>
<!DOCTYPE svg PUBLIC "-//W3C//DTD SVG 20010904//EN"
 "http://www.w3.org/TR/2001/REC-SVG-20010904/DTD/svg10.dtd">
<svg version="1.0" xmlns="http://www.w3.org/2000/svg"
 width="728.000000pt" height="508.000000pt" viewBox="0 0 728.000000 508.000000"
 preserveAspectRatio="xMidYMid meet">

<g transform="translate(0.000000,508.000000) scale(0.100000,-0.100000)"
fill="#000000" stroke="none">
<path d="M5335 5064 c-75 -27 -129 -56 -185 -99 -30 -23 -369 -356 -752 -740
l-697 -697 -48 34 c-128 93 -282 87 -409 -17 -84 -69 -134 -199 -115 -299 11
-59 50 -144 75 -165 9 -8 16 -18 16 -24 0 -6 -363 -373 -806 -816 -443 -443
-825 -833 -849 -866 -77 -108 -115 -248 -115 -418 0 -122 -52 -217 -194 -355
-40 -40 -73 -72 -71 -72 1 0 -12 -16 -29 -35 -43 -46 -66 -116 -66 -196 0
-117 47 -202 146 -265 52 -33 55 -34 164 -34 137 0 147 5 310 165 163 160 241
194 445 195 108 0 214 35 319 105 67 44 1408 1384 1399 1398 -3 5 -1 7 5 3 5
-3 69 53 141 126 l131 132 42 -31 c121 -85 278 -88 387 -6 98 73 144 160 145
273 0 82 -19 139 -70 205 l-27 35 693 693 c381 380 707 710 725 732 48 58 112
181 130 250 23 87 21 251 -4 340 -59 210 -232 387 -441 451 -63 19 -340 18
-395 -2z m395 -215 c163 -79 260 -230 260 -407 0 -79 -23 -172 -57 -232 -26
-45 -1428 -1460 -1447 -1460 -13 0 -636 625 -636 638 0 14 1383 1395 1430
1427 21 14 69 37 106 51 59 21 83 24 169 22 91 -3 107 -7 175 -39z m-1705
-1929 l488 -488 5 -55 c5 -65 -14 -109 -58 -132 -37 -19 -93 -19 -133 0 -18 8
-148 132 -290 275 -144 145 -263 257 -269 254 -6 -4 -8 -3 -5 3 3 5 -88 105
-203 221 -115 116 -213 220 -219 231 -18 32 -13 103 8 135 11 17 18 32 16 36
-2 3 4 6 13 7 9 1 33 6 52 10 79 20 72 26 595 -497z m-341 -327 c174 -174 316
-321 316 -327 0 -6 -82 -93 -182 -193 l-183 -183 -637 0 c-351 0 -638 4 -638
8 0 8 998 1012 1005 1012 2 0 145 -142 319 -317z m-764 -1418 c-283 -284 -532
-527 -552 -541 -69 -49 -159 -74 -261 -74 -223 -1 -355 -64 -544 -261 -105
-109 -154 -130 -223 -94 -38 20 -50 43 -50 100 0 45 2 49 108 158 141 147 131
134 168 194 54 83 84 189 90 312 8 158 29 236 85 311 11 14 107 113 214 220
l195 195 642 -3 643 -2 -515 -515z"/>
<path d="M5545 4315 c-24 -11 -689 -672 -732 -728 -42 -54 14 -147 88 -147 39
0 47 7 409 369 240 240 372 379 376 396 10 40 -6 76 -45 102 -38 26 -53 27
-96 8z"/>
<path d="M4643 3410 c-12 -5 -70 -57 -128 -115 -104 -103 -106 -106 -103 -148
4 -80 85 -122 151 -79 49 33 204 198 211 225 16 67 -68 143 -131 117z"/>
</g>
</svg>
